<svg width="232" height="60" viewBox="0 0 232 60" fill="none" xmlns="http://www.w3.org/2000/svg">
<g clip-path="url(#clip0_139_1217)">
<path d="M4.13348 45.7223H0V35.8524V31.8664V12H4.13348V31.9297H10.0385C13.7783 31.9297 16.7964 29.0193 16.7964 25.413V23.6415H20.9299V25.413C20.9299 28.8928 19.1584 31.993 16.4027 33.891C19.1584 35.7891 20.9299 38.8893 20.9299 42.3691V45.7223H16.7964V42.3691C16.7964 38.7627 13.7783 35.8524 10.0385 35.8524H4.13348V45.7223V45.7223Z" fill="#3E4857"/>
<path d="M43.172 30.7276V23.5782H47.3055V30.7276V34.2706C47.3055 34.84 47.2399 35.4727 47.1742 36.0422C47.1086 36.6116 46.9118 37.181 46.7806 37.7504C46.0589 40.0281 44.4842 42.0527 42.5159 43.4446C41.991 43.8242 41.4661 44.0773 40.9412 44.3937C40.4163 44.6467 39.8258 44.8998 39.2353 45.0896C38.6448 45.2794 38.0543 45.406 37.4638 45.5325C36.8733 45.5958 36.2172 45.659 35.6267 45.659C35.0362 45.659 34.3801 45.5958 33.7896 45.5325C33.1991 45.4692 32.6086 45.2794 32.0181 45.0896C31.4276 44.8998 30.8371 44.6467 30.3123 44.3937C29.7874 44.1406 29.2625 43.8242 28.7376 43.4446C26.7693 42.0527 25.1946 40.0281 24.4729 37.7504C24.2761 37.181 24.1448 36.6116 24.0792 36.0422C24.0136 35.4727 23.948 34.84 23.948 34.2706V30.7276V23.5782H28.0815V30.7276V34.2706V34.3339V34.3972V34.4604V34.587C28.0815 34.6502 28.0815 34.7135 28.0815 34.7135V34.84V34.9666V35.0299V35.0931C28.0815 35.2197 28.0815 35.2829 28.1471 35.4095C28.2127 35.7891 28.2783 36.1687 28.4095 36.5483C28.4095 36.6116 28.4751 36.7381 28.4751 36.8014L28.6064 37.0545V37.1177V37.181L28.672 37.3075L28.7376 37.4341L28.8032 37.5606C28.8688 37.7504 29 37.877 29.0656 38.0668C29.1313 38.13 29.1969 38.2566 29.1969 38.3198C29.1969 38.3831 29.2625 38.3831 29.2625 38.4464L29.3281 38.5729C29.5905 38.8893 29.853 39.2056 30.1154 39.4587C30.3779 39.7118 30.7059 39.9648 31.034 40.2179C31.362 40.471 31.6901 40.6608 32.0837 40.8506C32.4118 41.0404 32.8055 41.1669 33.1991 41.2935C33.5928 41.42 33.9865 41.4833 34.3801 41.5466C34.7738 41.6098 35.1675 41.6098 35.5611 41.6098C35.9548 41.6098 36.3484 41.5466 36.7421 41.5466C37.1358 41.4833 37.5294 41.42 37.9231 41.2935C38.3168 41.1669 38.6448 41.0404 39.0385 40.8506C39.3665 40.6608 39.7602 40.471 40.0883 40.2179C40.4163 39.9648 40.7444 39.7118 41.0068 39.4587C41.2693 39.2056 41.5317 38.8893 41.7941 38.5729L41.8598 38.4464C41.8598 38.3831 41.9254 38.3831 41.9254 38.3198C41.991 38.2566 42.0566 38.13 42.0566 38.0668C42.1878 37.877 42.2534 37.7504 42.319 37.5606L42.3846 37.4341L42.4503 37.3075L42.5159 37.181V37.1177V37.0545L42.6471 36.8014C42.6471 36.7381 42.7127 36.6116 42.7127 36.5483C42.8439 36.1687 42.9095 35.7891 42.9751 35.4095C42.9751 35.2829 42.9751 35.2197 43.0408 35.0931V35.0299V34.9666V34.84V34.7135C43.0408 34.6502 43.0408 34.587 43.0408 34.587V34.4604V34.3972V34.3339V34.2706L43.172 30.7276Z" fill="#3E4857"/>
<path d="M50.2579 37.877V35.9156C50.2579 35.2829 50.2579 34.587 50.3235 33.9543C50.3892 33.3216 50.5204 32.6256 50.6516 31.9929C50.8484 31.3603 51.0453 30.7276 51.3733 30.1582C51.9638 28.956 52.7512 27.8805 53.6697 26.9314C54.129 26.4886 54.6539 26.0457 55.2444 25.6661C55.7692 25.2864 56.3597 24.9701 57.0159 24.6538C58.2625 24.0843 59.5747 23.768 60.9525 23.6415C61.6086 23.5782 62.3303 23.5782 62.9864 23.5782H64.9548V27.5641H62.9208H61.9367C61.7398 27.5641 61.4774 27.5641 61.2806 27.6274C60.4276 27.6907 59.5747 27.9437 58.7217 28.3234C58.3281 28.5132 57.9344 28.703 57.6064 28.956C57.2783 29.2091 56.8846 29.4622 56.6222 29.7785C56.0317 30.4112 55.5068 31.1072 55.1131 31.8664C54.9163 32.246 54.7851 32.6256 54.6539 33.0685C54.5226 33.4481 54.457 33.891 54.457 34.3339C54.457 34.5237 54.457 34.7768 54.457 34.9666V35.9156V37.877V45.7223H50.3235L50.2579 37.877Z" fill="#3E4857"/>
<path d="M120.265 34.3972C120.265 28.1336 125.514 23.0721 132.009 23.0721C138.505 23.0721 143.753 28.1336 143.753 34.3972V45.7223H139.62V43.0018C137.586 44.71 134.896 45.7223 132.009 45.7223C125.514 45.7223 120.265 40.6608 120.265 34.3972ZM124.333 34.3972C124.333 36.3585 125.12 38.1933 126.563 39.5852C128.007 40.9771 129.91 41.7364 131.943 41.7364C133.977 41.7364 135.88 40.9771 137.324 39.5852C138.767 38.1933 139.554 36.3585 139.554 34.3972C139.554 32.4358 138.767 30.6011 137.324 29.2091C135.88 27.8172 133.977 27.058 131.943 27.058C129.91 27.058 128.007 27.8172 126.563 29.2091C125.12 30.5378 124.333 32.4358 124.333 34.3972Z" fill="#3E4857"/>
<path d="M146.771 37.877V35.9156C146.771 35.2829 146.771 34.587 146.837 33.9543C146.903 33.3216 147.034 32.6256 147.165 31.9929C147.362 31.3603 147.559 30.7276 147.887 30.1582C148.477 28.956 149.265 27.8805 150.183 26.9314C150.643 26.4886 151.167 26.0457 151.758 25.6661C152.283 25.2864 152.873 24.9701 153.529 24.6538C154.776 24.0843 156.088 23.768 157.466 23.6415C158.122 23.5782 158.844 23.5782 159.5 23.5782H161.534V27.5641H159.434H158.45C158.253 27.5641 157.991 27.5641 157.794 27.6274C156.941 27.6907 156.088 27.9437 155.235 28.3234C154.842 28.5132 154.448 28.703 154.12 28.956C153.792 29.2091 153.398 29.4622 153.136 29.7785C152.545 30.4112 152.02 31.1072 151.627 31.8664C151.43 32.246 151.299 32.6256 151.167 33.0685C151.036 33.4481 150.971 33.891 150.971 34.3339C150.971 34.5237 150.971 34.7768 150.971 34.9666V35.9156V37.877V45.7223H146.837L146.771 37.877Z" fill="#3E4857"/>
<path d="M187.91 34.3972C187.91 40.6608 182.661 45.7223 176.165 45.7223C169.67 45.7223 164.421 40.6608 164.421 34.3972V12H168.554V25.7293C170.588 24.0211 173.278 23.0088 176.165 23.0088C182.661 23.0721 187.91 28.1336 187.91 34.3972ZM183.842 34.3972C183.842 32.4359 183.054 30.6011 181.611 29.2091C180.167 27.8172 178.265 27.058 176.231 27.058C174.197 27.058 172.294 27.8172 170.851 29.2091C169.407 30.6011 168.62 32.4359 168.62 34.3972C168.62 36.3585 169.407 38.1933 170.851 39.5852C172.294 40.9771 174.197 41.7364 176.231 41.7364C178.265 41.7364 180.167 40.9771 181.611 39.5852C182.989 38.1933 183.842 36.3585 183.842 34.3972Z" fill="#3E4857"/>
<path d="M194.339 42.3691C192.109 40.2179 190.862 37.3708 190.862 34.3972C190.862 31.3603 192.109 28.5764 194.339 26.4253C196.57 24.2742 199.523 23.0721 202.606 23.0721C205.69 23.0721 208.643 24.2742 210.873 26.4253C213.104 28.5764 214.351 31.4235 214.351 34.3972V36.3585H195.258C196.176 39.4587 199.129 41.7364 202.606 41.7364C204.378 41.7364 206.149 41.1037 207.527 40.0281L210.152 43.065C208.052 44.7733 205.362 45.7223 202.606 45.7223C199.523 45.7223 196.57 44.5202 194.339 42.3691ZM195.258 32.3726H209.955C209.036 29.2724 206.084 26.9947 202.606 26.9947C199.129 26.9947 196.176 29.2724 195.258 32.3726Z" fill="#3E4857"/>
<path d="M217.303 37.877V35.9156C217.303 35.2829 217.303 34.587 217.369 33.9543C217.434 33.3216 217.566 32.6256 217.697 31.9929C217.894 31.3603 218.09 30.7276 218.419 30.1582C219.009 28.956 219.796 27.8805 220.715 26.9314C221.174 26.4886 221.699 26.0457 222.29 25.6661C222.814 25.2864 223.405 24.9701 224.061 24.6538C225.308 24.0843 226.62 23.768 227.998 23.6415C228.654 23.5782 229.376 23.5782 230.032 23.5782H232.066V27.5641H230.032H229.048C228.851 27.5641 228.588 27.5641 228.391 27.6274C227.538 27.6907 226.686 27.9437 225.833 28.3234C225.439 28.5132 225.045 28.703 224.717 28.956C224.389 29.2091 223.995 29.4622 223.733 29.7785C223.143 30.4112 222.618 31.1072 222.224 31.8664C222.027 32.246 221.896 32.6256 221.765 33.0685C221.633 33.4481 221.568 33.891 221.568 34.3339C221.568 34.5237 221.568 34.7768 221.568 34.9666V35.9156V37.877V45.7223H217.434L217.303 37.877Z" fill="#3E4857"/>
<path d="M87.1968 12H91.3303V34.3972C91.3303 40.6608 86.0814 45.7223 79.586 45.7223C73.0905 45.7223 67.8416 40.6608 67.8416 34.3972C67.8416 28.1336 73.0905 23.0721 79.586 23.0721C82.4728 23.0721 85.1629 24.0844 87.1968 25.7926V12ZM87.1968 34.3972C87.1968 32.4359 86.4095 30.6011 84.966 29.2091C83.5226 27.8172 81.6199 27.058 79.586 27.058C77.552 27.058 75.6493 27.8172 74.2059 29.2091C72.7624 30.6011 71.9751 32.4359 71.9751 34.3972C71.9751 36.3585 72.7624 38.1933 74.2059 39.5852C75.6493 40.9771 77.552 41.7364 79.586 41.7364C81.6199 41.7364 83.5226 40.9771 84.966 39.5852C86.4095 38.1933 87.1968 36.3585 87.1968 34.3972Z" fill="#3E4857"/>
<path d="M117.771 34.3972C117.771 40.6608 112.523 45.7223 106.027 45.7223C99.5317 45.7223 94.2828 40.6608 94.2828 34.3972V12H98.4163V25.7926C100.45 24.0844 103.14 23.0721 106.027 23.0721C112.523 23.0721 117.771 28.1336 117.771 34.3972ZM113.638 34.3972C113.638 32.4359 112.851 30.6011 111.407 29.2091C109.964 27.8172 108.061 27.058 106.027 27.058C103.993 27.058 102.09 27.8172 100.647 29.2091C99.2036 30.6011 98.4163 32.4359 98.4163 34.3972C98.4163 36.3585 99.2036 38.1933 100.647 39.5852C102.09 40.9771 103.993 41.7364 106.027 41.7364C108.061 41.7364 109.964 40.9771 111.407 39.5852C112.851 38.1933 113.638 36.3585 113.638 34.3972Z" fill="#3E4857"/>
<path d="M107.667 44.8365H104.387V48H107.667V44.8365Z" fill="#3E4857"/>
<path d="M94.414 32.8155H91.1335V35.9789H94.414V32.8155Z" fill="#3E4857"/>
</g>
<defs>
<clipPath id="clip0_139_1217">
<rect width="232" height="36" fill="white" transform="translate(0 12)"/>
</clipPath>
</defs>
</svg>
